<svg width="337" height="337" viewBox="0 0 337 337" fill="none" xmlns="http://www.w3.org/2000/svg">
<rect width="337" height="337" fill="#DFBB87"/>
<path d="M76.6121 85.7593H95.7837V146.5H76.6121V85.7593ZM50.2512 77.3718H122.145V94.3312H50.2512V77.3718ZM132.767 133.227V117.835H180.419V133.227H132.767ZM169.543 77.3718L200.973 146.5H180.603L154.242 85.4828H159.773L133.32 146.5H112.95L144.38 77.3718H169.543ZM248.352 116.36V104.747L282.271 146.5H258.767L236.37 117.558H245.771L223.281 146.5H200.054L234.157 104.839V116.268L202.082 77.3718H225.954L246.232 103.548H236.83L256.832 77.3718H280.335L248.352 116.36ZM74.0314 191.372V252.02L65.4595 243.541H117.167V260.5H54.952V191.372H74.0314ZM138.797 247.227V231.835H186.45V247.227H138.797ZM175.573 191.372L207.004 260.5H186.634L160.273 199.483H165.803L139.35 260.5H118.981L150.411 191.372H175.573ZM260.374 226.673L261.941 223.079C267.286 223.201 271.68 224.031 275.121 225.567C278.623 227.042 281.235 229.131 282.956 231.835C284.676 234.477 285.536 237.549 285.536 241.052C285.536 244.8 284.676 248.149 282.956 251.099C281.235 253.987 278.654 256.291 275.213 258.011C271.834 259.67 267.594 260.5 262.494 260.5H211.431L216.777 225.014L211.431 191.372H260.65C267.041 191.372 272.018 192.877 275.582 195.888C279.146 198.838 280.928 202.955 280.928 208.239C280.928 211.127 280.252 213.892 278.9 216.534C277.548 219.177 275.367 221.42 272.356 223.263C269.406 225.045 265.412 226.182 260.374 226.673ZM230.326 256.076L222.952 247.135H257.332C260.097 247.135 262.248 246.459 263.784 245.107C265.32 243.756 266.088 241.881 266.088 239.485C266.088 237.089 265.259 235.184 263.6 233.77C261.941 232.296 259.483 231.558 256.226 231.558H227.837V218.47H253.645C255.857 218.47 257.701 217.825 259.175 216.534C260.712 215.183 261.48 213.37 261.48 211.096C261.48 209.253 260.834 207.747 259.544 206.58C258.254 205.351 256.41 204.737 254.014 204.737H223.044L230.326 195.796L235.027 225.014L230.326 256.076Z" fill="#090909"/>
</svg>
