<svg width="23.245300" height="25.487549" viewBox="0 0 23.2453 25.4875" fill="none" xmlns="http://www.w3.org/2000/svg" xmlns:xlink="http://www.w3.org/1999/xlink">
	<desc>
			Created with Pixso.
	</desc>
	<defs/>
	<path id="Vector" d="M18.5386 19.7733L19.0587 23.9867C19.192 25.0933 18.0053 25.8666 17.0587 25.2933L12.4453 22.5467C12.1253 22.36 12.0453 21.96 12.2186 21.64C12.8853 20.4133 13.2453 19.0267 13.2453 17.64C13.2453 12.76 9.05865 8.78668 3.91199 8.78668C2.85864 8.78668 1.83197 8.94666 0.871948 9.26666C0.378662 9.42664 -0.101379 8.97333 0.0186157 8.46667C1.23199 3.61334 5.89862 0 11.472 0C17.9786 0 23.2453 4.91998 23.2453 10.9867C23.2453 14.5867 21.392 17.7733 18.5386 19.7733Z" fill="#DFBB87" fill-opacity="1.000000" fill-rule="nonzero"/>
</svg>
