<svg width="125.000000" height="124.999992" viewBox="0 0 125 125" fill="none" xmlns="http://www.w3.org/2000/svg" xmlns:xlink="http://www.w3.org/1999/xlink">
	<desc>
			Created with Pixso.
	</desc>
	<defs>
		<filter id="filter_4_2127_dd" x="0.000000" y="0.000000" width="125.000000" height="124.999992" filterUnits="userSpaceOnUse" color-interpolation-filters="sRGB">
			<feFlood flood-opacity="0" result="BackgroundImageFix"/>
			<feColorMatrix in="SourceAlpha" type="matrix" values="0 0 0 0 0 0 0 0 0 0 0 0 0 0 0 0 0 0 127 0" result="hardAlpha"/>
			<feOffset dx="0" dy="4"/>
			<feGaussianBlur stdDeviation="1.33333"/>
			<feComposite in2="hardAlpha" operator="out" k2="-1" k3="1"/>
			<feColorMatrix type="matrix" values="0 0 0 0 0.035294 0 0 0 0 0.035294 0 0 0 0 0.035294 0 0 0 0.4 0"/>
			<feBlend mode="normal" in2="BackgroundImageFix" result="effect_dropShadow_1"/>
			<feBlend mode="normal" in="SourceGraphic" in2="effect_dropShadow_1" result="shape"/>
		</filter>
		<clipPath id="clip4_2127">
			<rect id="Logo" width="117.000000" height="117.000000" transform="translate(4.000000 0.000000)" fill="white" fill-opacity="0"/>
		</clipPath>
	</defs>
	<g filter="url(#filter_4_2127_dd)">
		<rect id="Logo" width="117.000000" height="117.000000" transform="translate(4.000000 0.000000)" fill="#DFBB87" fill-opacity="1.000000"/>
		<g clip-path="url(#clip4_2127)">
			<path id="tax lab" d="M30.2578 29.4141L36.9141 29.4141L36.9141 50.5L30.2578 50.5L30.2578 29.4141ZM21.1094 26.5L46.0703 26.5L46.0703 32.3906L21.1094 32.3906L21.1094 26.5ZM49.7501 45.8906L49.7501 40.5469L66.2891 40.5469L66.2891 45.8906L49.7501 45.8906ZM62.5157 26.5L73.4297 50.5L66.3594 50.5L57.2032 29.3125L59.1251 29.3125L49.9376 50.5L42.8672 50.5L53.7813 26.5L62.5157 26.5ZM89.8741 40.0391L89.8741 36.0078L101.655 50.5L93.4912 50.5L85.7178 40.4531L88.9834 40.4531L81.1709 50.5L73.1084 50.5L84.9444 36.0391L84.9444 40.0078L73.8116 26.5L82.1006 26.5L89.1397 35.5859L85.8741 35.5859L92.8194 26.5L100.983 26.5L89.8741 40.0391ZM29.3672 66.5L29.3672 87.5547L26.3906 84.6094L44.3438 84.6094L44.3438 90.5L22.7422 90.5L22.7422 66.5L29.3672 66.5ZM51.8621 85.8906L51.8621 80.5469L68.4011 80.5469L68.4011 85.8906L51.8621 85.8906ZM64.6277 66.5L75.5417 90.5L68.4714 90.5L59.3152 69.3125L61.2371 69.3125L52.0496 90.5L44.9793 90.5L55.8933 66.5L64.6277 66.5ZM94.0642 78.7578L94.6111 77.5078Q97.3923 77.5703 99.197 78.3594Q101.01 79.1406 101.908 80.5312Q102.806 81.9219 102.806 83.75Q102.806 85.7031 101.908 87.2266Q101.01 88.7422 99.2361 89.625Q97.4626 90.5 94.8064 90.5L77.0798 90.5L78.9314 78.1797L77.0798 66.5L94.1658 66.5Q97.4939 66.5 99.3454 68.0547Q101.205 69.6016 101.205 72.3594Q101.205 73.8594 100.502 75.2344Q99.7986 76.6094 98.2439 77.5547Q96.6892 78.5 94.0642 78.7578ZM83.6345 88.9609L81.0798 85.8594L93.0095 85.8594Q94.4548 85.8594 95.2517 85.1562Q96.0486 84.4531 96.0486 83.2031Q96.0486 81.9531 95.1814 81.2031Q94.322 80.4531 92.6267 80.4531L82.7751 80.4531L82.7751 75.9062L91.7283 75.9062Q92.8845 75.9062 93.6658 75.2188Q94.4548 74.5312 94.4548 73.3516Q94.4548 72.3906 93.7829 71.7656Q93.1111 71.1406 91.8611 71.1406L81.1111 71.1406L83.6345 68.0391L85.2673 78.1797L83.6345 88.9609Z" fill="#090909" fill-opacity="1.000000" fill-rule="evenodd"/>
		</g>
	</g>
</svg>
