<svg width="32.000000" height="32.000000" viewBox="0 0 32 32" fill="none" xmlns="http://www.w3.org/2000/svg" xmlns:xlink="http://www.w3.org/1999/xlink">
	<desc>
			Created with Pixso.
	</desc>
	<defs/>
	<g opacity="0.000000"/>
	<path id="Vector" d="M24.6266 22.4404L25.1467 26.6538C25.28 27.7603 24.0933 28.5337 23.1467 27.9604L18.5333 25.2139C18.2133 25.0269 18.1333 24.627 18.3066 24.3071C18.9733 23.0806 19.3333 21.6938 19.3333 20.3071C19.3333 15.4268 15.1467 11.4536 10 11.4536C8.94666 11.4536 7.91998 11.6138 6.95996 11.9336C6.46667 12.0938 5.98663 11.6401 6.10663 11.1338C7.32001 6.28027 11.9866 2.66699 17.56 2.66699C24.0667 2.66699 29.3333 7.58691 29.3333 13.6538C29.3333 17.2534 27.48 20.4404 24.6266 22.4404Z" fill="#090909" fill-opacity="1.000000" fill-rule="nonzero"/>
	<path id="Vector" d="M17.3333 20.3066C17.3333 21.8931 16.7466 23.3599 15.7599 24.52C14.4399 26.1196 12.3466 27.1465 9.99994 27.1465L6.51996 29.2129C5.93329 29.5732 5.18665 29.0796 5.2666 28.3999L5.59998 25.7729C3.81329 24.5332 2.66663 22.5464 2.66663 20.3066C2.66663 17.96 3.91998 15.8931 5.83997 14.6665C7.02661 13.8931 8.45331 13.4531 9.99994 13.4531C14.0533 13.4531 17.3333 16.52 17.3333 20.3066Z" fill="#090909" fill-opacity="1.000000" fill-rule="nonzero"/>
</svg>
