<svg width="32.000000" height="32.000000" viewBox="0 0 32 32" fill="none" xmlns="http://www.w3.org/2000/svg" xmlns:xlink="http://www.w3.org/1999/xlink">
	<desc>
			Created with Pixso.
	</desc>
	<defs/>
	<g opacity="0.000000"/>
	<path id="Vector" d="M24.6266 22.4399L25.1467 26.6533C25.28 27.7599 24.0933 28.5333 23.1467 27.96L18.5333 25.2133C18.2133 25.0266 18.1333 24.6266 18.3066 24.3066C18.9733 23.08 19.3333 21.6933 19.3333 20.3066C19.3333 15.4266 15.1467 11.4533 10 11.4533C8.94666 11.4533 7.91998 11.6133 6.95996 11.9333C6.46667 12.0933 5.98663 11.64 6.10663 11.1333C7.32001 6.27997 11.9866 2.66663 17.56 2.66663C24.0667 2.66663 29.3333 7.58661 29.3333 13.6533C29.3333 17.2533 27.48 20.4399 24.6266 22.4399Z" fill="#DFBB87" fill-opacity="1.000000" fill-rule="nonzero"/>
	<path id="Vector" d="M17.3333 20.3067C17.3333 21.8934 16.7466 23.36 15.7599 24.52C14.4399 26.1201 12.3466 27.1467 9.99994 27.1467L6.51996 29.2134C5.93329 29.5734 5.18665 29.08 5.2666 28.4L5.59998 25.7734C3.81329 24.5334 2.66663 22.5467 2.66663 20.3067C2.66663 17.96 3.91998 15.8934 5.83997 14.6667C7.02661 13.8934 8.45331 13.4534 9.99994 13.4534C14.0533 13.4534 17.3333 16.52 17.3333 20.3067Z" fill="#DFBB87" fill-opacity="1.000000" fill-rule="nonzero"/>
</svg>
