<svg width="24.000000" height="24.000000" viewBox="0 0 24 24" fill="none" xmlns="http://www.w3.org/2000/svg" xmlns:xlink="http://www.w3.org/1999/xlink">
	<desc>
			Created with Pixso.
	</desc>
	<defs/>
	<rect id="Phone" width="24.000000" height="24.000000" fill="#FFFFFF" fill-opacity="0"/>
	<rect id="vuesax/bold/call" width="24.000000" height="24.000000" fill="#FFFFFF" fill-opacity="0"/>
	<path id="Vector" d="M11.05 14.95L9.2 16.8C8.81 17.19 8.19 17.19 7.78999 16.81C7.67999 16.7 7.57001 16.6 7.46001 16.49C6.42999 15.45 5.5 14.36 4.67 13.22C3.85001 12.08 3.19 10.94 2.71001 9.81C2.24001 8.66998 2 7.58002 2 6.53998C2 5.85999 2.12 5.21002 2.36 4.60999C2.60001 4 2.98 3.44 3.50999 2.94C4.14999 2.31 4.85001 2 5.59 2C5.87 2 6.14999 2.06 6.39999 2.17999C6.66 2.29999 6.89 2.47998 7.07001 2.73999L9.39 6.01001C9.57001 6.26001 9.7 6.48999 9.78999 6.71002C9.88 6.91998 9.92999 7.13 9.92999 7.32001C9.92999 7.56 9.86 7.79999 9.72 8.03003C9.59 8.26001 9.39999 8.5 9.16 8.73999L8.39999 9.53003C8.28999 9.64001 8.24001 9.77002 8.24001 9.92999C8.24001 10.01 8.25 10.08 8.27 10.16C8.3 10.24 8.33 10.3 8.35001 10.36C8.53 10.69 8.84 11.12 9.28 11.64C9.73 12.16 10.21 12.69 10.73 13.22C10.83 13.32 10.94 13.42 11.04 13.52C11.44 13.91 11.45 14.55 11.05 14.95Z" fill="#B7AB98" fill-opacity="1.000000" fill-rule="nonzero"/>
	<path id="Vector" d="M21.97 18.33C21.97 18.61 21.92 18.9 21.82 19.18C21.79 19.2599 21.76 19.34 21.72 19.42C21.55 19.78 21.33 20.12 21.04 20.44C20.55 20.98 20.01 21.37 19.4 21.62C19.39 21.62 19.38 21.63 19.37 21.63C18.78 21.87 18.14 22 17.45 22C16.43 22 15.34 21.7599 14.19 21.27C13.04 20.78 11.89 20.12 10.75 19.29C10.36 19 9.97 18.71 9.60001 18.4L12.87 15.13C13.15 15.34 13.4 15.5 13.61 15.61C13.66 15.63 13.72 15.66 13.79 15.69C13.87 15.72 13.95 15.73 14.04 15.73C14.21 15.73 14.34 15.67 14.45 15.56L15.21 14.81C15.46 14.56 15.7 14.37 15.93 14.25C16.16 14.11 16.39 14.04 16.64 14.04C16.83 14.04 17.03 14.08 17.25 14.17C17.47 14.2599 17.7 14.39 17.95 14.56L21.26 16.91C21.52 17.09 21.7 17.3 21.81 17.55C21.91 17.8 21.97 18.05 21.97 18.33Z" fill="#B7AB98" fill-opacity="1.000000" fill-rule="nonzero"/>
	<g opacity="0.000000"/>
</svg>
