<svg width="40.000000" height="40.000000" viewBox="0 0 40 40" fill="none" xmlns="http://www.w3.org/2000/svg" xmlns:xlink="http://www.w3.org/1999/xlink">
	<desc>
			Created with Pixso.
	</desc>
	<defs/>
	<path id="“" d="M4 32.7842L4 25.4204C4 23.3296 4.40909 21.1934 5.22726 19.0112C6.04544 16.8296 7.125 14.7729 8.46591 12.8408C9.80682 10.9092 11.2614 9.29541 12.8296 8L19.2386 11.7842C17.9659 13.7842 16.9204 15.875 16.1023 18.0566C15.3068 20.2388 14.9091 22.6704 14.9091 25.3521L14.9091 32.7842L4 32.7842ZM21.2159 32.7842L21.2159 25.4204C21.2159 23.3296 21.625 21.1934 22.4432 19.0112C23.2614 16.8296 24.3409 14.7729 25.6818 12.8408C27.0227 10.9092 28.4773 9.29541 30.0454 8L36.4546 11.7842C35.1818 13.7842 34.1364 15.875 33.3182 18.0566C32.5227 20.2388 32.125 22.6704 32.125 25.3521L32.125 32.7842L21.2159 32.7842Z" fill="#DFBB87" fill-opacity="1.000000" fill-rule="nonzero"/>
</svg>
