<svg width="82" height="65" viewBox="0 0 82 65" fill="none" xmlns="http://www.w3.org/2000/svg">
<path d="M9.26 3.412H15.916V24.5H9.26V3.412ZM0.108 0.499998H25.068V6.388H0.108V0.499998ZM28.7558 19.892V14.548H45.2998V19.892H28.7558ZM41.5238 0.499998L52.4358 24.5H45.3638L36.2118 3.316H38.1318L28.9478 24.5H21.8758L32.7878 0.499998H41.5238ZM68.8848 14.036V10.004L80.6608 24.5H72.5008L64.7248 14.452H67.9888L60.1808 24.5H52.1167L63.9568 10.036V14.004L52.8208 0.499998H61.1088L68.1488 9.588H64.8848L71.8288 0.499998H79.9888L68.8848 14.036ZM8.364 40.5V61.556L5.388 58.612H23.34V64.5H1.74V40.5H8.364ZM30.8495 59.892V54.548H47.3935V59.892H30.8495ZM43.6175 40.5L54.5295 64.5H47.4575L38.3055 43.316H40.2255L31.0415 64.5H23.9695L34.8815 40.5H43.6175ZM73.0585 52.756L73.6025 51.508C75.4585 51.5507 76.9838 51.8387 78.1785 52.372C79.3945 52.884 80.3012 53.6093 80.8985 54.548C81.4958 55.4653 81.7945 56.532 81.7945 57.748C81.7945 59.0493 81.4958 60.212 80.8985 61.236C80.3012 62.2387 79.4052 63.0387 78.2105 63.636C77.0372 64.212 75.5652 64.5 73.7945 64.5H56.0665L57.9225 52.18L56.0665 40.5H73.1545C75.3732 40.5 77.1012 41.0227 78.3385 42.068C79.5758 43.092 80.1945 44.5213 80.1945 46.356C80.1945 47.3587 79.9598 48.3187 79.4905 49.236C79.0212 50.1533 78.2638 50.932 77.2185 51.572C76.1945 52.1907 74.8078 52.5853 73.0585 52.756ZM62.6265 62.964L60.0665 59.86H72.0025C72.9625 59.86 73.7092 59.6253 74.2425 59.156C74.7758 58.6867 75.0425 58.036 75.0425 57.204C75.0425 56.372 74.7545 55.7107 74.1785 55.22C73.6025 54.708 72.7492 54.452 71.6185 54.452H61.7625V49.908H70.7225C71.4905 49.908 72.1305 49.684 72.6425 49.236C73.1758 48.7667 73.4425 48.1373 73.4425 47.348C73.4425 46.708 73.2185 46.1853 72.7705 45.78C72.3225 45.3533 71.6825 45.14 70.8505 45.14H60.0985L62.6265 42.036L64.2585 52.18L62.6265 62.964Z" fill="#090909"/>
</svg>
