<svg width="24.000000" height="24.000000" viewBox="0 0 24 24" fill="none" xmlns="http://www.w3.org/2000/svg" xmlns:xlink="http://www.w3.org/1999/xlink">
	<desc>
			Created with Pixso.
	</desc>
	<defs>
		<clipPath id="clip4_2131">
			<rect id="Telegram" width="24.000000" height="24.000000" fill="white" fill-opacity="0"/>
		</clipPath>
	</defs>
	<rect id="Telegram" width="24.000000" height="24.000000" fill="#FFFFFF" fill-opacity="0"/>
	<g clip-path="url(#clip4_2131)">
		<path id="path5" d="M1.44 10.38C1.44 10.38 11.82 6.12006 15.42 4.62006C16.8 4.02002 21.48 2.10004 21.48 2.10004C21.48 2.10004 23.64 1.26001 23.46 3.30005C23.4 4.14001 22.92 7.08002 22.44 10.26C21.72 14.76 20.94 19.6801 20.94 19.6801C20.94 19.6801 20.82 21.0601 19.8 21.3C18.78 21.54 17.1 20.46 16.8 20.22C16.56 20.04 12.3 17.34 10.74 16.02C10.32 15.66 9.84 14.94 10.8 14.1C12.96 12.1201 15.54 9.66003 17.1 8.10004C17.82 7.38 18.54 5.70001 15.54 7.74005C11.28 10.6801 7.08 13.4401 7.08 13.4401C7.08 13.4401 6.12 14.04 4.32001 13.5001C2.52 12.96 0.419998 12.2401 0.419998 12.2401C0.419998 12.2401 -1.02 11.34 1.44 10.38Z" fill="#B7AB98" fill-opacity="1.000000" fill-rule="evenodd"/>
	</g>
</svg>
