<svg width="24.000000" height="24.000000" viewBox="0 0 24 24" fill="none" xmlns="http://www.w3.org/2000/svg" xmlns:xlink="http://www.w3.org/1999/xlink">
	<desc>
			Created with Pixso.
	</desc>
	<defs>
		<clipPath id="clip4_2132">
			<rect id="whatsapp" width="24.000000" height="24.000000" fill="white" fill-opacity="0"/>
		</clipPath>
	</defs>
	<rect id="whatsapp" width="24.000000" height="24.000000" fill="#FFFFFF" fill-opacity="0"/>
	<g clip-path="url(#clip4_2132)">
		<path id="Subtract" d="M11.997 0L12.003 0C18.6195 0 24 5.38348 24 12C24 18.6165 18.6195 24 12.003 24C9.5625 24 7.299 23.274 5.4015 22.017L0.789001 23.4915L2.2845 19.0335C0.845993 17.058 0 14.625 0 12C0 5.38202 5.38049 0 11.997 0ZM9.88504 15.3898L11.1916 14.0661C11.4741 13.7798 11.4671 13.322 11.1846 13.0428C11.1492 13.0071 11.1122 12.9713 11.0751 12.9355C11.038 12.8998 11.0009 12.864 10.9656 12.8282C10.5984 12.449 10.2594 12.0698 9.94154 11.6977C9.6308 11.3256 9.41185 11.0179 9.28473 10.7818C9.27708 10.7585 9.26736 10.7354 9.2567 10.7098C9.24767 10.6882 9.23795 10.665 9.22823 10.6387C9.21411 10.5815 9.20705 10.5314 9.20705 10.4741C9.20705 10.3596 9.24236 10.2666 9.32004 10.1879L9.8568 9.62268C10.0263 9.45093 10.1605 9.27917 10.2523 9.11462C10.3512 8.95007 10.4006 8.77832 10.4006 8.60663C10.4006 8.47064 10.3653 8.32037 10.3017 8.1701C10.2382 8.0127 10.1464 7.84814 10.0192 7.66925L8.38072 5.32947C8.2536 5.14343 8.09116 5.01465 7.90753 4.92877C7.73096 4.84296 7.53322 4.79999 7.33546 4.79999C6.81284 4.79999 6.31845 5.02179 5.86646 5.4726C5.49213 5.83038 5.22375 6.23108 5.05426 6.66754C4.88475 7.09686 4.8 7.56195 4.8 8.04852C4.8 8.79266 4.9695 9.57257 5.30144 10.3882C5.64044 11.1968 6.10657 12.0125 6.6857 12.8282C7.2719 13.6439 7.92871 14.4238 8.65616 15.168C8.69499 15.2073 8.73383 15.2449 8.77264 15.2824C8.81149 15.32 8.85037 15.3576 8.88922 15.397C9.17172 15.6689 9.6096 15.6689 9.88504 15.3898ZM19.0909 17.0743C19.1636 16.8633 19.2 16.6447 19.2 16.4337C19.2 16.2226 19.1563 16.0342 19.0836 15.8457C19.0036 15.6573 18.8726 15.499 18.6834 15.3633L16.2752 13.592C16.0933 13.4638 15.9259 13.3658 15.7659 13.298C15.6058 13.2302 15.4603 13.2 15.3221 13.2C15.1402 13.2 14.9728 13.2527 14.8055 13.3583C14.6382 13.4487 14.4635 13.592 14.2816 13.7804L13.7287 14.3457C13.6487 14.4286 13.5541 14.4739 13.4304 14.4739C13.3649 14.4739 13.3067 14.4663 13.2485 14.4437C13.2252 14.4333 13.2033 14.423 13.183 14.4133C13.1591 14.402 13.1372 14.3916 13.1175 14.3834C12.9648 14.3005 12.7829 14.1799 12.5791 14.0216L10.2 16.4865C10.4692 16.7201 10.7529 16.9387 11.0367 17.1573C11.8661 17.7829 12.7028 18.2804 13.5395 18.6497C14.3762 19.0191 15.1693 19.2 15.9114 19.2C16.4134 19.2 16.8791 19.102 17.3083 18.9211C17.309 18.9211 17.3098 18.921 17.3105 18.9209C17.3114 18.9207 17.3123 18.9205 17.3133 18.9201C17.3153 18.9194 17.3172 18.9184 17.3192 18.9174C17.3229 18.9155 17.3265 18.9136 17.3302 18.9136C17.774 18.7251 18.1669 18.4312 18.5234 18.0241C18.7344 17.7829 18.8944 17.5266 19.0181 17.2552C19.0472 17.195 19.069 17.1346 19.0909 17.0743Z" fill="#B7AB98" fill-opacity="1.000000" fill-rule="evenodd"/>
	</g>
</svg>
